# Blender v2.79 (sub 0) OBJ File: 'cauldron.blend'
# www.blender.org
mtllib cauldron.mtl
o cauldron_couldron
v 0.434083 0.010420 0.142691
v 0.349960 0.762319 0.137770
v 0.142691 0.010420 0.434083
v 0.650040 0.762319 0.137770
v 0.207463 0.006345 0.432662
v 0.862230 0.762319 0.349960
v 0.207463 0.006345 0.567338
v 0.862230 0.762319 0.650040
v 0.142691 0.010420 0.565917
v 0.650040 0.762319 0.862230
v 0.434083 0.010420 0.857309
v 0.349959 0.762319 0.862230
v 0.432662 0.006345 0.792537
v 0.137770 0.762319 0.650040
v 0.567338 0.006345 0.792537
v 0.137770 0.762319 0.349960
v 0.565917 0.010420 0.857309
v 0.349571 0.378918 0.046039
v 0.299487 0.537041 0.015918
v 0.700513 0.537041 0.015918
v 0.650429 0.378918 0.046039
v 0.857309 0.010420 0.565917
v 0.984082 0.537041 0.299487
v 0.953961 0.378918 0.349571
v 0.792537 0.006345 0.567338
v 0.984082 0.537041 0.700513
v 0.953961 0.378918 0.650429
v 0.792537 0.006345 0.432662
v 0.700513 0.537041 0.984082
v 0.650429 0.378918 0.953961
v 0.857309 0.010420 0.434083
v 0.299487 0.537041 0.984082
v 0.349570 0.378918 0.953961
v 0.565917 0.010420 0.142691
v 0.015918 0.537041 0.700513
v 0.046039 0.378918 0.650429
v 0.567338 0.006345 0.207463
v 0.015918 0.537041 0.299487
v 0.046039 0.378918 0.349571
v 0.432662 0.006345 0.207463
v 0.422428 0.113020 0.312725
v 0.577572 0.113020 0.312725
v 0.617778 0.214337 0.093798
v 0.687275 0.113020 0.422428
v 0.906202 0.214337 0.382222
v 0.687275 0.113020 0.577572
v 0.906202 0.214337 0.617778
v 0.577572 0.113020 0.687275
v 0.617778 0.214337 0.906202
v 0.422428 0.113020 0.687275
v 0.382222 0.214337 0.906202
v 0.312725 0.113020 0.577572
v 0.093798 0.214337 0.617778
v 0.312725 0.113020 0.422428
v 0.093798 0.214337 0.382222
v 0.382222 0.214337 0.093798
v 0.375975 0.363329 0.072253
v 0.624025 0.363329 0.072253
v 0.927747 0.363329 0.375975
v 0.927747 0.363329 0.624025
v 0.624025 0.363329 0.927747
v 0.375975 0.363329 0.927747
v 0.072253 0.363329 0.624025
v 0.072253 0.363329 0.375975
v 0.299487 0.646845 0.015918
v 0.700513 0.646845 0.015918
v 0.984082 0.646845 0.299487
v 0.984082 0.646845 0.700513
v 0.700513 0.646845 0.984082
v 0.299487 0.646845 0.984082
v 0.015918 0.646845 0.700513
v 0.015918 0.646845 0.299487
v 0.704982 0.762319 0.005129
v 0.295017 0.762319 0.005129
v 0.295017 0.655385 0.005129
v 0.994871 0.762319 0.295018
v 0.994871 0.762319 0.704982
v 0.704982 0.762319 0.994871
v 0.295017 0.762319 0.994871
v 0.005129 0.762319 0.704983
v 0.005128 0.762319 0.295018
v 0.704982 0.655385 0.005129
v 0.994871 0.655385 0.295018
v 0.994871 0.655385 0.704982
v 0.704982 0.655385 0.994871
v 0.295017 0.655385 0.994871
v 0.005129 0.655385 0.704983
v 0.005128 0.655385 0.295018
v 0.650040 0.410487 0.137770
v 0.349960 0.410487 0.137770
v 0.862230 0.410487 0.349960
v 0.862230 0.410487 0.650040
v 0.650040 0.410487 0.862230
v 0.349959 0.410487 0.862230
v 0.137770 0.410487 0.650040
v 0.137770 0.410487 0.349960
v 0.608752 0.348549 0.237451
v 0.391248 0.348549 0.237451
v 0.762549 0.348549 0.391248
v 0.762549 0.348549 0.608752
v 0.608752 0.348549 0.762549
v 0.391248 0.348549 0.762549
v 0.237451 0.348549 0.608752
v 0.237451 0.348549 0.391249
v 0.630372 0.216434 0.185253
v 0.597209 0.156836 0.265317
v 0.734683 0.156836 0.402791
v 0.814746 0.216434 0.369628
v 0.814746 0.216434 0.630372
v 0.734683 0.156836 0.597209
v 0.597209 0.156836 0.734683
v 0.630372 0.216434 0.814746
v 0.369628 0.216434 0.814746
v 0.402791 0.156836 0.734683
v 0.265317 0.156836 0.597209
v 0.185254 0.216434 0.630372
v 0.185253 0.216434 0.369628
v 0.265317 0.156836 0.402791
v 0.402791 0.156836 0.265317
v 0.369628 0.216434 0.185254
v 0.351851 0.320811 0.142337
v 0.648149 0.320811 0.142337
v 0.857663 0.320811 0.351851
v 0.857663 0.320811 0.648149
v 0.648149 0.320811 0.857663
v 0.351851 0.320811 0.857663
v 0.142337 0.320811 0.648149
v 0.142337 0.320811 0.351851
vt 0.236798 0.360986
vt 0.324612 0.324612
vt 0.356768 0.356768
vt 0.236798 0.406462
vt 0.324612 0.148983
vt 0.236798 0.112609
vt 0.236798 0.067133
vt 0.356768 0.116827
vt 0.220860 0.441240
vt 0.103505 0.392630
vt 0.103865 0.388061
vt 0.223836 0.437755
vt 0.148983 0.148983
vt 0.112609 0.236797
vt 0.067133 0.236797
vt 0.116827 0.116827
vt 0.370090 0.392630
vt 0.252735 0.441240
vt 0.249759 0.437755
vt 0.369730 0.388061
vt 0.441240 0.252735
vt 0.392630 0.370090
vt 0.388061 0.369730
vt 0.437755 0.249759
vt 0.009528 0.796544
vt 0.009528 0.701494
vt 0.120970 0.701494
vt 0.120970 0.796544
vt 0.148983 0.324612
vt 0.116827 0.356768
vt 0.392630 0.103505
vt 0.441240 0.220860
vt 0.437755 0.223836
vt 0.388061 0.103865
vt 0.589768 0.111860
vt 0.617777 0.039637
vt 0.654359 0.070060
vt 0.654809 0.090617
vt 0.712994 0.157038
vt 0.638382 0.157038
vt 0.696567 0.090617
vt 0.651081 0.022509
vt 0.700222 0.022509
vt 0.696980 0.069979
vt 0.654322 0.069979
vt 0.806795 0.610568
vt 0.847170 0.552963
vt 0.962064 0.680711
vt 0.902601 0.711398
vt 0.712957 0.156956
vt 0.638345 0.156956
vt 0.654772 0.090536
vt 0.696530 0.090536
vt 0.733599 0.039637
vt 0.761608 0.111861
vt 0.697017 0.070060
vt 0.706617 0.612435
vt 0.675943 0.552914
vt 0.697092 0.070180
vt 0.696642 0.090737
vt 0.654884 0.090737
vt 0.654434 0.070180
vt 0.605546 0.708166
vt 0.547970 0.667725
vt 0.696958 0.070091
vt 0.696508 0.090648
vt 0.654749 0.090648
vt 0.654299 0.070091
vt 0.607432 0.808214
vt 0.547970 0.838901
vt 0.803416 0.907177
vt 0.703238 0.909044
vt 0.712207 0.898663
vt 0.794758 0.896938
vt 0.715275 0.622674
vt 0.615920 0.717142
vt 0.662863 0.966649
vt 0.904488 0.811445
vt 0.894113 0.802469
vt 0.892378 0.720053
vt 0.617655 0.799558
vt 0.834091 0.966698
vt 0.797826 0.620949
vt 0.962064 0.851887
vt 0.739023 0.718921
vt 0.737017 0.799682
vt 0.713444 0.775728
vt 0.714532 0.742304
vt 0.761548 0.111891
vt 0.733540 0.039668
vt 0.747555 0.055803
vt 0.766663 0.083093
vt 0.644248 0.804389
vt 0.707203 0.870156
vt 0.651117 0.022591
vt 0.700259 0.022591
vt 0.712934 0.157069
vt 0.714913 0.204753
vt 0.636344 0.204753
vt 0.638322 0.157069
vt 0.807142 0.126511
vt 0.761683 0.111980
vt 0.766798 0.083182
vt 0.798342 0.100916
vt 0.733674 0.039757
vt 0.747689 0.055892
vt 0.733563 0.039555
vt 0.761571 0.111779
vt 0.714936 0.204640
vt 0.636367 0.204640
vt 0.865785 0.715223
vt 0.802831 0.649456
vt 0.700183 0.736377
vt 0.732812 0.704054
vt 0.589709 0.111891
vt 0.617717 0.039667
vt 0.713069 0.157158
vt 0.715047 0.204842
vt 0.636478 0.204842
vt 0.638457 0.157158
vt 0.544309 0.126391
vt 0.553109 0.100796
vt 0.584653 0.083062
vt 0.771010 0.800691
vt 0.795502 0.777308
vt 0.809850 0.783235
vt 0.777222 0.815558
vt 0.589843 0.111980
vt 0.617852 0.039757
vt 0.714973 0.204722
vt 0.636403 0.204722
vt 0.589732 0.111779
vt 0.617740 0.039555
vt 0.651192 0.022711
vt 0.700334 0.022711
vt 0.651058 0.022622
vt 0.700199 0.022622
vt 0.424762 0.383400
vt 0.473372 0.266045
vt 0.266045 0.473372
vt 0.383400 0.424762
vt 0.090195 0.424762
vt 0.207550 0.473372
vt 0.000223 0.266045
vt 0.032355 0.252735
vt 0.080966 0.370090
vt 0.048833 0.383400
vt 0.048833 0.090195
vt 0.080965 0.103505
vt 0.032355 0.220860
vt 0.000223 0.207550
vt 0.207550 0.000223
vt 0.220860 0.032355
vt 0.103505 0.080965
vt 0.090195 0.048832
vt 0.383400 0.048833
vt 0.370090 0.080965
vt 0.252735 0.032355
vt 0.266045 0.000223
vt 0.473372 0.207550
vt 0.424763 0.090195
vt 0.406462 0.236798
vt 0.369730 0.085534
vt 0.249759 0.035840
vt 0.223836 0.035840
vt 0.103865 0.085534
vt 0.085534 0.103865
vt 0.035840 0.223836
vt 0.035840 0.249759
vt 0.085534 0.369730
vt 0.360986 0.236798
vt 0.158143 0.714573
vt 0.158142 0.783466
vt 0.438800 0.879305
vt 0.371590 0.946515
vt 0.292788 0.867714
vt 0.359999 0.800503
vt 0.193779 0.517243
vt 0.288829 0.517243
vt 0.288829 0.628685
vt 0.193779 0.628685
vt 0.111019 0.946515
vt 0.043809 0.879305
vt 0.122610 0.800503
vt 0.189820 0.867714
vt 0.288829 0.980796
vt 0.193779 0.980796
vt 0.193779 0.869354
vt 0.288829 0.869354
vt 0.473081 0.701494
vt 0.473081 0.796544
vt 0.361639 0.796544
vt 0.361639 0.701494
vt 0.043809 0.618734
vt 0.111019 0.551524
vt 0.189821 0.630325
vt 0.122610 0.697535
vt 0.371590 0.551524
vt 0.438800 0.618734
vt 0.359999 0.697535
vt 0.292788 0.630325
vt 0.324466 0.714573
vt 0.206858 0.665857
vt 0.275751 0.665857
vt 0.324466 0.783466
vt 0.206858 0.832181
vt 0.275751 0.832181
vt 0.773017 0.719930
vt 0.796589 0.743883
vt 0.778843 0.705460
vt 0.788876 0.682025
vt 0.836672 0.727621
vt 0.811300 0.737639
vt 0.676879 0.726242
vt 0.722792 0.678529
vt 0.644404 0.712203
vt 0.710392 0.649307
vt 0.731191 0.814152
vt 0.721157 0.837587
vt 0.673361 0.791991
vt 0.698734 0.781973
vt 0.833154 0.793370
vt 0.787241 0.841083
vt 0.865629 0.807409
vt 0.799642 0.870305
vt 0.544384 0.126511
vt 0.553184 0.100916
vt 0.584728 0.083182
vt 0.603837 0.055892
vt 0.807030 0.126310
vt 0.766686 0.082980
vt 0.798230 0.100714
vt 0.584594 0.083093
vt 0.603702 0.055804
vt 0.544273 0.126310
vt 0.553072 0.100714
vt 0.584616 0.082980
vt 0.747577 0.055690
vt 0.807007 0.126422
vt 0.798207 0.100827
vt 0.747614 0.055772
vt 0.766723 0.083062
vt 0.544250 0.126422
vt 0.553049 0.100826
vt 0.603762 0.055772
vt 0.807067 0.126391
vt 0.798267 0.100796
vt 0.603724 0.055692
vn 0.0000 1.0000 -0.0000
vn -0.4389 -0.7841 0.4389
vn -0.6207 -0.7841 0.0000
vn -0.4389 -0.7841 -0.4389
vn 1.0000 0.0000 -0.0000
vn 0.0000 -0.7841 -0.6206
vn 0.9769 -0.2057 0.0571
vn -0.0000 -0.2332 -0.9724
vn 0.0000 -0.7024 -0.7118
vn -0.6656 -0.3376 -0.6656
vn -0.0000 -0.2332 0.9724
vn -0.9769 -0.2057 0.0571
vn -0.9823 -0.1871 0.0000
vn 0.0000 -0.9980 -0.0628
vn 0.0628 -0.9980 0.0000
vn -0.6656 -0.3376 0.6656
vn 0.0000 -0.9980 0.0628
vn -0.0628 -0.9980 0.0000
vn -0.0000 -0.1871 0.9823
vn 0.5111 -0.8595 -0.0000
vn -0.2733 -0.9223 0.2733
vn 0.6656 -0.3376 0.6656
vn -0.0000 -0.8595 -0.5111
vn 0.2733 -0.9223 0.2733
vn 0.9823 -0.1871 -0.0000
vn -0.5111 -0.8595 0.0000
vn 0.2733 -0.9223 -0.2733
vn 0.6656 -0.3376 -0.6656
vn 0.0000 -0.8595 0.5111
vn -0.2733 -0.9223 -0.2733
vn 0.0000 -0.1871 -0.9823
vn 0.0000 -1.0000 -0.0000
vn -0.0741 -0.5244 0.8482
vn 0.5618 -0.6073 0.5618
vn -0.0000 -0.7024 0.7118
vn -0.9897 -0.1431 0.0000
vn 0.2558 -0.1555 -0.9541
vn 0.0741 -0.5244 -0.8482
vn 0.9769 -0.2057 -0.0571
vn -0.0000 -0.1431 0.9897
vn -0.5618 -0.6073 -0.5618
vn -0.4799 -0.7344 0.4799
vn 0.0571 -0.2057 -0.9769
vn 0.9897 -0.1431 0.0000
vn 0.9541 -0.1555 -0.2558
vn 0.4799 -0.7344 -0.4799
vn -0.0571 -0.2057 0.9769
vn -0.0000 -0.1431 -0.9897
vn -0.9769 -0.2057 -0.0571
vn -0.0571 -0.2057 -0.9769
vn 0.0571 -0.2057 0.9769
vn -0.9724 -0.2332 0.0000
vn -0.7118 -0.7024 0.0000
vn 0.9724 -0.2332 0.0000
vn 0.7118 -0.7024 -0.0000
vn -0.7071 0.0000 -0.7071
vn -1.0000 0.0000 0.0000
vn -0.7071 0.0000 0.7071
vn -0.0000 0.0000 1.0000
vn 0.7071 0.0000 0.7071
vn 0.7071 0.0000 -0.7071
vn 0.0000 0.0000 -1.0000
vn -0.0000 -0.7841 0.6206
vn 0.4389 -0.7841 0.4389
vn 0.6207 -0.7841 0.0000
vn 0.4389 -0.7841 -0.4389
vn 0.5278 0.8494 -0.0000
vn 0.0000 0.8494 -0.5278
vn -0.5278 0.8494 0.0000
vn 0.0000 0.8494 0.5278
vn 0.3732 0.8494 0.3732
vn 0.3732 0.8494 -0.3732
vn -0.3732 0.8494 -0.3732
vn -0.3732 0.8494 0.3732
vn -0.4222 -0.8022 -0.4222
vn -0.6540 -0.3803 -0.6540
vn -0.4222 -0.8022 0.4222
vn -0.6540 -0.3803 0.6540
vn 0.4222 -0.8022 0.4222
vn 0.6540 -0.3803 0.6540
vn 0.4222 -0.8022 -0.4222
vn 0.6540 -0.3803 -0.6540
vn 0.2558 -0.1555 0.9541
vn 0.0741 -0.5244 0.8482
vn 0.9541 -0.1555 0.2558
vn -0.0741 -0.5244 -0.8482
vn 0.4799 -0.7344 0.4799
vn -0.9541 -0.1555 0.2558
vn -0.4799 -0.7344 -0.4799
vn -0.5618 -0.6073 0.5618
vn 0.8482 -0.5244 0.0741
vn -0.2558 -0.1555 0.9541
vn 0.5618 -0.6073 -0.5618
vn -0.8482 -0.5244 -0.0741
vn -0.2558 -0.1555 -0.9541
vn 0.8482 -0.5244 -0.0741
vn -0.9541 -0.1555 -0.2558
vn -0.8482 -0.5244 0.0741
usemtl cauldron
f 14/1/1 16/2/1 81/3/1 80/4/1
f 4/5/1 6/6/1 76/7/1 73/8/1
f 71/9/2 70/10/2 86/11/2 87/12/2
f 8/13/1 10/14/1 78/15/1 77/16/1
f 72/17/3 71/18/3 87/19/3 88/20/3
f 65/21/4 72/22/4 88/23/4 75/24/4
f 16/25/5 14/26/5 95/27/5 96/28/5
f 12/29/1 14/1/1 80/4/1 79/30/1
f 66/31/6 65/32/6 75/33/6 82/34/6
f 43/35/7 42/36/7 37/37/7 34/38/7
f 56/39/8 43/40/8 34/38/8 1/41/8
f 50/42/9 48/43/9 15/44/9 13/45/9
f 39/46/10 38/47/10 19/48/10 18/49/10
f 49/50/11 51/51/11 11/52/11 17/53/11
f 41/54/12 56/55/12 1/41/12 40/56/12
f 36/57/13 35/58/13 38/47/13 39/46/13
f 40/56/14 1/41/14 34/38/14 37/37/14
f 28/59/15 31/60/15 22/61/15 25/62/15
f 33/63/16 32/64/16 35/58/16 36/57/16
f 15/44/17 17/53/17 11/52/17 13/45/17
f 7/65/18 9/66/18 3/67/18 5/68/18
f 30/69/19 29/70/19 32/64/19 33/63/19
f 24/71/20 27/72/20 60/73/20 59/74/20
f 33/63/21 36/57/21 63/75/21 62/76/21
f 27/72/22 26/77/22 29/70/22 30/69/22
f 18/49/23 21/78/23 58/79/23 57/80/23
f 27/72/24 30/69/24 61/81/24 60/73/24
f 24/71/25 23/82/25 26/77/25 27/72/25
f 36/57/26 39/46/26 64/83/26 63/75/26
f 21/78/27 24/71/27 59/74/27 58/79/27
f 21/78/28 20/84/28 23/82/28 24/71/28
f 30/69/29 33/63/29 62/76/29 61/81/29
f 39/46/30 18/49/30 57/80/30 64/83/30
f 18/49/31 19/48/31 20/84/31 21/78/31
f 52/85/32 46/86/32 48/87/32 50/88/32
f 53/89/33 52/90/33 115/91/33 116/92/33
f 60/73/34 61/81/34 125/93/34 124/94/34
f 42/95/35 41/96/35 40/56/35 37/37/35
f 53/97/36 63/98/36 64/99/36 55/100/36
f 59/101/37 45/102/37 108/103/37 123/104/37
f 45/102/38 44/105/38 107/106/38 108/103/38
f 48/107/39 49/108/39 17/53/39 15/44/39
f 49/50/40 61/109/40 62/110/40 51/51/40
f 64/83/41 57/80/41 121/111/41 128/112/41
f 52/85/42 50/88/42 114/113/42 115/114/42
f 55/115/43 54/116/43 5/68/43 3/67/43
f 45/117/44 59/118/44 60/119/44 47/120/44
f 43/35/45 58/121/45 122/122/45 105/123/45
f 44/124/46 42/125/46 106/126/46 107/127/46
f 47/128/47 46/129/47 25/62/47 22/61/47
f 56/39/48 57/130/48 58/131/48 43/40/48
f 51/132/49 50/133/49 13/45/49 11/52/49
f 44/105/50 45/102/50 31/60/50 28/59/50
f 52/90/51 53/89/51 9/66/51 7/65/51
f 53/97/52 55/100/52 3/67/52 9/66/52
f 46/134/53 44/135/53 28/59/53 25/62/53
f 45/117/54 47/120/54 22/61/54 31/60/54
f 54/136/55 52/137/55 7/65/55 5/68/55
f 38/138/56 72/22/56 65/21/56 19/139/56
f 35/140/57 71/18/57 72/17/57 38/141/57
f 32/142/58 70/10/58 71/9/58 35/143/58
f 29/144/59 69/145/59 70/146/59 32/147/59
f 26/148/60 68/149/60 69/150/60 29/151/60
f 23/152/5 67/153/5 68/154/5 26/155/5
f 20/156/61 66/157/61 67/158/61 23/159/61
f 19/160/62 65/32/62 66/31/62 20/161/62
f 75/33/62 74/162/62 73/8/62 82/34/62
f 82/163/61 73/8/61 76/7/61 83/164/61
f 83/165/5 76/7/5 77/16/5 84/166/5
f 84/167/60 77/16/60 78/15/60 85/168/60
f 85/169/59 78/15/59 79/30/59 86/170/59
f 86/11/58 79/30/58 80/4/58 87/12/58
f 87/19/57 80/4/57 81/3/57 88/20/57
f 88/23/56 81/3/56 74/162/56 75/24/56
f 70/146/63 69/145/63 85/169/63 86/170/63
f 69/150/64 68/149/64 84/167/64 85/168/64
f 10/14/1 12/29/1 79/30/1 78/15/1
f 68/154/65 67/153/65 83/165/65 84/166/65
f 6/6/1 8/13/1 77/16/1 76/7/1
f 67/158/66 66/157/66 82/163/66 83/164/66
f 16/2/1 2/171/1 74/162/1 81/3/1
f 2/171/1 4/5/1 73/8/1 74/162/1
f 96/28/67 95/27/67 103/172/67 104/173/67
f 6/174/58 4/175/58 89/176/58 91/177/58
f 12/178/62 10/179/62 93/180/62 94/181/62
f 2/182/60 16/183/60 96/184/60 90/185/60
f 4/186/59 2/187/59 90/188/59 89/189/59
f 8/190/57 6/191/57 91/192/57 92/193/57
f 14/194/61 12/195/61 94/196/61 95/197/61
f 10/198/56 8/199/56 92/200/56 93/201/56
f 100/202/1 103/172/1 102/203/1 101/204/1
f 94/181/68 93/180/68 101/204/68 102/203/68
f 92/193/69 91/192/69 99/205/69 100/202/69
f 89/189/70 90/188/70 98/206/70 97/207/70
f 90/185/71 96/184/71 104/173/71 98/206/71
f 95/197/72 94/196/72 102/203/72 103/172/72
f 93/201/73 92/200/73 100/202/73 101/204/73
f 91/177/74 89/176/74 97/207/74 99/205/74
f 99/205/1 104/173/1 103/172/1 100/202/1
f 97/207/1 98/206/1 104/173/1 99/205/1
f 54/208/32 44/124/32 46/86/32 52/85/32
f 41/209/32 42/125/32 44/124/32 54/208/32
f 118/210/75 117/211/75 120/212/75 119/213/75
f 117/211/76 128/112/76 121/111/76 120/212/76
f 114/113/77 113/214/77 116/215/77 115/114/77
f 113/214/78 126/216/78 127/217/78 116/215/78
f 110/218/79 109/219/79 112/220/79 111/221/79
f 109/219/80 124/94/80 125/93/80 112/220/80
f 106/126/81 105/222/81 108/223/81 107/127/81
f 105/222/82 122/224/82 123/225/82 108/223/82
f 47/128/83 60/226/83 124/227/83 109/228/83
f 46/129/84 47/128/84 109/228/84 110/229/84
f 61/230/85 49/108/85 112/231/85 125/232/85
f 54/116/86 55/115/86 117/233/86 118/234/86
f 48/87/87 46/86/87 110/218/87 111/221/87
f 51/132/88 62/235/88 126/236/88 113/237/88
f 41/209/89 54/208/89 118/210/89 119/213/89
f 62/76/90 63/75/90 127/217/90 126/216/90
f 49/108/91 48/107/91 111/238/91 112/231/91
f 63/239/92 53/89/92 116/92/92 127/240/92
f 58/79/93 59/74/93 123/225/93 122/224/93
f 56/55/94 41/54/94 119/241/94 120/242/94
f 55/115/95 64/243/95 128/244/95 117/233/95
f 42/36/96 43/35/96 105/123/96 106/245/96
f 57/246/97 56/55/97 120/242/97 121/247/97
f 50/133/98 51/132/98 113/237/98 114/248/98
