# Blender v2.79 (sub 0) OBJ File: 'cauldron.blend'
# www.blender.org
mtllib cauldron.mtl
o cauldron
v 0.315294 0.745954 0.038060
v 0.315294 0.909131 0.038060
v 0.684706 0.909131 0.038060
v 0.684706 0.745954 0.038060
v 0.635329 0.904939 0.826714
v 0.826714 0.904939 0.635329
v 0.826714 0.615762 0.635329
v 0.635329 0.615762 0.826714
v 0.364671 0.904939 0.826713
v 0.364671 0.615762 0.826713
v 0.173286 0.904939 0.635329
v 0.173286 0.615762 0.635329
v 0.173286 0.904939 0.364671
v 0.173286 0.615762 0.364671
v 0.689476 0.913635 0.957437
v 0.696034 0.909131 0.957247
v 0.957247 0.909131 0.696034
v 0.957437 0.913635 0.689476
v 0.952552 0.918520 0.687453
v 0.687453 0.918520 0.952552
v 0.047448 0.736566 0.312547
v 0.312547 0.736566 0.047448
v 0.320139 0.736566 0.065777
v 0.065777 0.736566 0.320139
v 0.826714 0.904939 0.364671
v 0.826714 0.615762 0.364671
v 0.370418 0.153144 0.178281
v 0.319745 0.256214 0.064826
v 0.680255 0.256214 0.064826
v 0.629582 0.153144 0.178281
v 0.364671 0.615762 0.173286
v 0.213830 0.425597 0.381464
v 0.381464 0.425597 0.213830
v 0.042563 0.913635 0.310524
v 0.038060 0.909131 0.315294
v 0.038060 0.909131 0.684706
v 0.042563 0.913635 0.689476
v 0.047448 0.918520 0.687453
v 0.047448 0.918520 0.312547
v 0.310524 0.913635 0.957437
v 0.315294 0.909131 0.961940
v 0.684706 0.909131 0.961940
v 0.312547 0.918520 0.952552
v 0.042563 0.741451 0.310524
v 0.042753 0.745954 0.303966
v 0.303966 0.745954 0.042753
v 0.310524 0.741451 0.042563
v 0.961940 0.909131 0.684706
v 0.961940 0.909131 0.315294
v 0.957437 0.913635 0.310524
v 0.952552 0.918520 0.312547
v 0.042753 0.909131 0.696034
v 0.303966 0.909131 0.957247
v 0.687453 0.918520 0.047448
v 0.312547 0.918520 0.047448
v 0.359046 0.918520 0.159706
v 0.640954 0.918520 0.159706
v 0.957247 0.909131 0.303966
v 0.696034 0.909131 0.042753
v 0.689476 0.913635 0.042563
v 0.952552 0.736566 0.687453
v 0.687453 0.736566 0.952552
v 0.679861 0.736566 0.934223
v 0.934223 0.736566 0.679861
v 0.687453 0.736566 0.047448
v 0.952552 0.736566 0.312547
v 0.934223 0.736566 0.320139
v 0.679861 0.736566 0.065777
v 0.047448 0.736566 0.687453
v 0.065777 0.736566 0.679861
v 0.312547 0.736566 0.952552
v 0.320139 0.736566 0.934223
v 0.812838 0.152265 0.370233
v 0.812838 0.152265 0.629397
v 0.629582 0.152265 0.812653
v 0.064826 0.256214 0.319745
v 0.025027 0.397801 0.303260
v 0.303260 0.397801 0.025027
v 0.064826 0.256214 0.680255
v 0.025027 0.397801 0.696740
v 0.319745 0.256214 0.935174
v 0.303260 0.397801 0.974973
v 0.976647 0.421671 0.697434
v 0.697434 0.421671 0.976647
v 0.935174 0.256214 0.319745
v 0.974973 0.397801 0.303260
v 0.974973 0.397801 0.696740
v 0.935174 0.256214 0.680255
v 0.696740 0.397801 0.025027
v 0.302566 0.421671 0.976647
v 0.023353 0.421671 0.697434
v 0.302566 0.421671 0.023353
v 0.697434 0.421671 0.023353
v 0.187162 0.152265 0.370233
v 0.108829 0.000850 0.222327
v 0.157941 0.000808 0.249688
v 0.976647 0.421671 0.302566
v 0.891171 0.000670 0.776128
v 0.842059 0.000640 0.748418
v 0.680255 0.256214 0.935174
v 0.370418 0.152265 0.812653
v 0.696740 0.397801 0.974973
v 0.108829 0.000670 0.776128
v 0.223987 0.000670 0.891286
v 0.023353 0.421671 0.302566
v 0.187162 0.152265 0.629397
v 0.891171 0.000850 0.222327
v 0.776013 0.000850 0.107169
v 0.748533 0.001257 0.151724
v 0.842059 0.000808 0.249688
v 0.776013 0.000670 0.891286
v 0.748533 0.000640 0.841944
v 0.251467 0.000640 0.841944
v 0.157941 0.000640 0.748418
v 0.223987 0.000850 0.107169
v 0.251467 0.001257 0.151724
v 0.310524 0.913635 0.042563
v 0.303966 0.909131 0.042753
v 0.042753 0.909131 0.303966
v 0.696034 0.745954 0.042753
v 0.957247 0.745954 0.303966
v 0.961940 0.745954 0.315294
v 0.961940 0.745954 0.684706
v 0.957247 0.745954 0.696034
v 0.696034 0.745954 0.957247
v 0.684706 0.745954 0.961940
v 0.315294 0.745954 0.961940
v 0.303966 0.745954 0.957247
v 0.042753 0.745954 0.696034
v 0.038060 0.745954 0.684706
v 0.038060 0.745954 0.315294
v 0.689476 0.741451 0.042563
v 0.042563 0.741451 0.689476
v 0.310524 0.741451 0.957437
v 0.689476 0.741451 0.957437
v 0.957437 0.741451 0.689476
v 0.957437 0.741451 0.310524
v 0.635329 0.904939 0.173286
v 0.635329 0.615762 0.173286
v 0.213830 0.425597 0.618536
v 0.292629 0.395275 0.585896
v 0.292629 0.395275 0.414104
v 0.381464 0.425597 0.786170
v 0.786170 0.425597 0.618536
v 0.618536 0.425597 0.786170
v 0.618536 0.425597 0.213830
v 0.786170 0.425597 0.381464
v 0.840294 0.918520 0.359046
v 0.840294 0.918520 0.640954
v 0.640954 0.918520 0.840294
v 0.359046 0.918520 0.840294
v 0.159706 0.918520 0.640954
v 0.159706 0.918520 0.359046
v 0.364671 0.904939 0.173286
v 0.585896 0.395275 0.707371
v 0.414104 0.395275 0.707371
v 0.707371 0.395275 0.414104
v 0.707371 0.395275 0.585896
v 0.414104 0.395275 0.292629
v 0.585896 0.395275 0.292629
vt 0.521830 0.710369
vt 0.576460 0.733606
vt 0.577485 0.836670
vt 0.521955 0.857432
vt 0.118026 0.558338
vt 0.061049 0.501360
vt 0.121925 0.440483
vt 0.178903 0.497461
vt 0.293065 0.597464
vt 0.212486 0.597464
vt 0.212486 0.511372
vt 0.293065 0.511372
vt 0.444503 0.501360
vt 0.387525 0.558338
vt 0.326649 0.497461
vt 0.383626 0.440483
vt 0.483629 0.326321
vt 0.483629 0.406900
vt 0.397537 0.406900
vt 0.397537 0.326321
vt 0.832478 0.834583
vt 0.833093 0.836941
vt 0.761575 0.910865
vt 0.759200 0.910269
vt 0.627102 0.593907
vt 0.516583 0.705328
vt 0.508372 0.701919
vt 0.623694 0.585696
vt 0.021922 0.406900
vt 0.021922 0.326321
vt 0.108014 0.326321
vt 0.108014 0.406900
vt 0.661759 0.475566
vt 0.636430 0.525907
vt 0.547450 0.436921
vt 0.597792 0.411595
vt 0.326649 0.235760
vt 0.383626 0.292738
vt 0.339158 0.330135
vt 0.289251 0.280228
vt 0.651849 0.656662
vt 0.653073 0.654566
vt 0.755452 0.653067
vt 0.756697 0.655168
vt 0.831466 0.729021
vt 0.833562 0.730263
vt 0.834588 0.833326
vt 0.628781 0.598043
vt 0.627262 0.601182
vt 0.523862 0.705596
vt 0.520688 0.707070
vt 0.757976 0.912365
vt 0.655598 0.913866
vt 0.654352 0.911765
vt 0.759047 0.654563
vt 0.832079 0.726648
vt 0.581485 0.837122
vt 0.580480 0.733129
vt 0.611721 0.745784
vt 0.612538 0.824222
vt 0.652002 0.912371
vt 0.578969 0.840284
vt 0.579581 0.837911
vt 0.783948 0.973025
vt 0.894465 0.861605
vt 0.902676 0.865013
vt 0.787356 0.981236
vt 0.516599 0.862369
vt 0.627262 0.973447
vt 0.623837 0.981654
vt 0.508372 0.865738
vt 0.783788 0.593486
vt 0.787211 0.585279
vt 0.894448 0.704563
vt 0.902676 0.701194
vt 0.599941 0.318984
vt 0.663912 0.255017
vt 0.754377 0.255020
vt 0.650520 0.171294
vt 0.645296 0.124692
vt 0.769976 0.124692
vt 0.764752 0.171294
vt 0.870518 0.436528
vt 0.910888 0.468762
vt 0.813763 0.565881
vt 0.781532 0.525509
vt 0.650676 0.170938
vt 0.645453 0.124335
vt 0.770132 0.124335
vt 0.764909 0.170938
vt 0.645233 0.117110
vt 0.650801 0.016429
vt 0.764784 0.016429
vt 0.770352 0.117110
vt 0.547856 0.291819
vt 0.507486 0.259585
vt 0.604611 0.162467
vt 0.636842 0.202838
vt 0.650519 0.170938
vt 0.645296 0.124335
vt 0.769976 0.124335
vt 0.764752 0.170938
vt 0.604197 0.566276
vt 0.507078 0.469152
vt 0.645233 0.116753
vt 0.650801 0.016073
vt 0.764784 0.016073
vt 0.770352 0.116753
vt 0.598461 0.572354
vt 0.515695 0.646441
vt 0.426908 0.557649
vt 0.501000 0.474887
vt 0.320476 0.710931
vt 0.359607 0.660237
vt 0.390235 0.761034
vt 0.369657 0.766887
vt 0.645076 0.116753
vt 0.650644 0.016073
vt 0.764627 0.016073
vt 0.770196 0.116753
vt 0.501409 0.253850
vt 0.427322 0.171083
vt 0.516114 0.082297
vt 0.598876 0.156389
vt 0.320722 0.711472
vt 0.360026 0.660857
vt 0.390108 0.761670
vt 0.369436 0.767429
vt 0.819499 0.156407
vt 0.902266 0.082320
vt 0.991052 0.171112
vt 0.916960 0.253874
vt 0.781530 0.202854
vt 0.870511 0.291840
vt 0.818343 0.318990
vt 0.650676 0.171294
vt 0.645453 0.124692
vt 0.770132 0.124692
vt 0.764909 0.171294
vt 0.488186 0.725439
vt 0.488186 0.862629
vt 0.389944 0.824990
vt 0.389944 0.763016
vt 0.916965 0.474497
vt 0.991052 0.557263
vt 0.902260 0.646050
vt 0.819498 0.571959
vt 0.818341 0.409455
vt 0.754371 0.473422
vt 0.645076 0.117110
vt 0.650644 0.016429
vt 0.764627 0.016429
vt 0.770196 0.117110
vt 0.488587 0.723081
vt 0.488587 0.860271
vt 0.390352 0.822217
vt 0.390352 0.760242
vt 0.370968 0.764836
vt 0.369774 0.816364
vt 0.390108 0.823645
vt 0.369436 0.817762
vt 0.369272 0.768898
vt 0.369272 0.819231
vt 0.390235 0.823009
vt 0.370851 0.818414
vt 0.299290 0.841888
vt 0.299290 0.743265
vt 0.301362 0.844170
vt 0.299024 0.743206
vt 0.359711 0.924340
vt 0.320564 0.873566
vt 0.361335 0.923983
vt 0.323598 0.875503
vt 0.488350 0.724032
vt 0.488350 0.861221
vt 0.323715 0.707747
vt 0.361453 0.659268
vt 0.488469 0.722980
vt 0.488469 0.860169
vt 0.320399 0.713095
vt 0.359546 0.662320
vt 0.299141 0.840044
vt 0.301480 0.739081
vt 0.299126 0.843395
vt 0.299126 0.744772
vt 0.359725 0.923014
vt 0.320593 0.872319
vt 0.359862 0.925803
vt 0.320557 0.875189
vt 0.578570 0.732349
vt 0.577954 0.729991
vt 0.649474 0.656066
vt 0.523874 0.862249
vt 0.627553 0.966168
vt 0.632309 0.968206
vt 0.778987 0.967692
vt 0.783788 0.965751
vt 0.887186 0.861336
vt 0.889218 0.856563
vt 0.889093 0.709500
vt 0.887173 0.704683
vt 0.783496 0.600766
vt 0.778740 0.598728
vt 0.632063 0.599240
vt 0.520741 0.860712
vt 0.782034 0.597594
vt 0.890307 0.706220
vt 0.890359 0.859863
vt 0.782269 0.968890
vt 0.629015 0.969339
vt 0.061048 0.231861
vt 0.118026 0.174883
vt 0.178903 0.235760
vt 0.121925 0.292738
vt 0.910883 0.259609
vt 0.813764 0.162484
vt 0.339650 0.331321
vt 0.339650 0.401900
vt 0.314513 0.392183
vt 0.314513 0.341038
vt 0.289251 0.452994
vt 0.339159 0.403086
vt 0.166393 0.403086
vt 0.216300 0.452994
vt 0.216300 0.280228
vt 0.166393 0.330135
vt 0.217486 0.453485
vt 0.288065 0.453485
vt 0.165902 0.331321
vt 0.165902 0.401900
vt 0.212486 0.221849
vt 0.293065 0.221849
vt 0.288065 0.279737
vt 0.217486 0.279737
vt 0.655132 0.909870
vt 0.667695 0.878983
vt 0.758401 0.908377
vt 0.745201 0.877591
vt 0.829563 0.729810
vt 0.830567 0.833803
vt 0.799326 0.821148
vt 0.798509 0.742710
vt 0.652648 0.658555
vt 0.755917 0.657063
vt 0.743354 0.687950
vt 0.665847 0.689341
vt 0.387525 0.174884
vt 0.444503 0.231861
vt 0.227203 0.428348
vt 0.278348 0.428348
vt 0.191038 0.341038
vt 0.191038 0.392183
vt 0.278348 0.304873
vt 0.227203 0.304873
vt 0.617072 0.747808
vt 0.617765 0.821933
vt 0.669733 0.873679
vt 0.742833 0.872413
vt 0.793976 0.819124
vt 0.793283 0.745000
vt 0.741316 0.693254
vt 0.668216 0.694519
vt 0.212486 0.135757
vt 0.293065 0.135757
vn 0.0000 0.0000 -1.0000
vn -0.7071 0.0000 -0.7071
vn 0.7071 0.0000 -0.7071
vn 1.0000 0.0000 0.0000
vn 0.5000 0.7071 0.5000
vn 0.5001 0.7070 0.5001
vn 0.0000 -1.0000 -0.0000
vn -1.0000 0.0000 0.0000
vn 0.0000 -0.7402 -0.6724
vn 0.6916 0.2085 0.6916
vn -0.7071 0.7071 0.0000
vn -0.7072 0.7070 0.0000
vn 0.0000 0.7071 0.7071
vn 0.0000 0.7070 0.7072
vn -0.5000 -0.7071 -0.5000
vn 0.7071 0.7071 0.0000
vn 0.7072 0.7070 0.0000
vn -0.5000 0.7071 0.5000
vn -0.5001 0.7070 0.5001
vn 0.0000 1.0000 0.0000
vn 0.5000 0.7071 -0.5000
vn 0.5001 0.7070 -0.5001
vn -0.0020 -1.0000 -0.0011
vn -0.0024 -1.0000 -0.0010
vn -0.0021 -1.0000 -0.0011
vn -0.6807 -0.2706 -0.6807
vn -0.9627 -0.2706 -0.0000
vn -0.6807 -0.2706 0.6807
vn 0.7008 0.1335 0.7008
vn 0.9627 -0.2706 -0.0000
vn 0.6807 -0.2706 -0.6807
vn 0.0000 -0.2706 -0.9627
vn -0.7008 0.1335 0.7008
vn 0.0000 0.1335 -0.9910
vn -0.5699 -0.4040 0.7155
vn 0.7008 0.1335 -0.7008
vn 0.6475 -0.7621 -0.0000
vn 0.9910 0.1335 0.0000
vn 0.5709 -0.3993 -0.7174
vn 0.0000 0.1335 0.9910
vn 0.0000 -0.7625 0.6469
vn 0.6807 -0.2706 0.6807
vn -0.6999 0.1421 0.6999
vn -0.9910 0.1335 0.0000
vn -0.6475 -0.7621 -0.0000
vn -0.7008 0.1335 -0.7008
vn 0.6995 0.1463 -0.6995
vn -0.0035 -1.0000 0.0013
vn 0.0004 -1.0000 0.0004
vn -0.0004 -1.0000 0.0004
vn 0.0035 -1.0000 0.0013
vn -0.5816 -0.5687 -0.5816
vn 0.5971 -0.5669 0.5675
vn -0.7190 -0.3995 0.5687
vn 0.6981 -0.3913 -0.5996
vn 0.6999 0.1421 0.6999
vn -0.6981 -0.3913 -0.5996
vn -0.6995 0.1463 -0.6995
vn 0.7190 -0.3995 0.5687
vn -0.5971 -0.5669 0.5675
vn 0.5816 -0.5687 -0.5816
vn 0.5699 -0.4040 0.7155
vn -0.5709 -0.3993 -0.7174
vn -0.5000 0.7071 -0.5000
vn -0.5001 0.7070 -0.5001
vn 0.7071 0.0000 0.7071
vn 0.0000 0.0000 1.0000
vn -0.7071 0.0000 0.7071
vn 0.0000 -0.7071 -0.7071
vn -0.7071 -0.7071 0.0000
vn -0.5000 -0.7071 0.5000
vn 0.0000 -0.7071 0.7071
vn 0.5000 -0.7071 0.5000
vn 0.7071 -0.7071 0.0000
vn 0.5000 -0.7071 -0.5000
vn 0.0000 -0.0700 -0.9975
vn 0.7054 -0.0700 -0.7054
vn 0.9976 -0.0700 -0.0000
vn 0.7054 -0.0700 0.7054
vn 0.0000 -0.0700 0.9975
vn -0.7054 -0.0700 0.7054
vn -0.9975 -0.0700 -0.0000
vn -0.7054 -0.0700 -0.7054
vn 0.0000 -0.2706 0.9627
vn 0.3591 0.9333 0.0000
vn 0.6916 0.2085 -0.6916
vn -0.6916 0.2085 -0.6916
vn -0.6916 0.2085 0.6916
vn 0.9780 0.2085 0.0000
vn 0.0000 0.2085 -0.9780
vn -0.9780 0.2085 0.0000
vn 0.0000 0.2085 0.9780
vn 0.0000 0.9333 -0.3591
vn -0.3591 0.9333 0.0000
vn 0.0000 0.9333 0.3591
vn 0.2539 0.9333 0.2539
vn 0.2539 0.9333 -0.2539
vn -0.2539 0.9333 -0.2539
vn -0.2539 0.9333 0.2539
vn 0.0000 0.7071 -0.7071
vn -0.3398 0.4602 -0.8202
vn 0.3398 0.4602 -0.8202
vn 0.8202 0.4602 -0.3398
vn 0.8202 0.4604 0.3396
vn 0.3398 0.4602 0.8202
vn -0.3398 0.4602 0.8202
vn -0.8201 0.4605 0.3395
vn -0.8201 0.4605 -0.3395
vn -0.3398 -0.4603 -0.8202
vn 0.3398 -0.4603 -0.8202
vn 0.8202 -0.4603 -0.3398
vn 0.8202 -0.4603 0.3398
vn 0.3398 -0.4603 0.8202
vn -0.3398 -0.4603 0.8202
vn -0.8202 -0.4603 0.3398
vn -0.8202 -0.4603 -0.3398
vn -0.3827 0.0000 -0.9239
vn 0.3827 0.0000 -0.9239
vn -0.9239 0.0000 -0.3827
vn 0.9239 0.0000 -0.3827
vn 0.9239 0.0000 0.3827
vn 0.3827 0.0000 0.9239
vn -0.3827 0.0000 0.9239
vn -0.9239 0.0000 0.3827
vn 0.0000 0.7070 -0.7072
vn 0.0020 -1.0000 -0.0011
vn 0.0024 -1.0000 -0.0010
usemtl cauldron
s 1
f 1/1/1 2/2/1 3/3/1 4/4/1
f 5/5/2 6/6/2 7/7/2 8/8/2
f 9/9/1 5/10/1 8/11/1 10/12/1
f 11/13/3 9/14/3 10/15/3 12/16/3
f 13/17/4 11/18/4 12/19/4 14/20/4
f 15/21/5 16/22/6 17/23/6 18/24/5
f 21/25/7 22/26/7 23/27/7 24/28/7
f 6/29/8 25/30/8 26/31/8 7/32/8
f 27/33/9 28/34/9 29/35/9 30/36/9
f 31/37/10 14/38/10 32/39/10 33/40/10
f 34/41/11 35/42/12 36/43/12 37/44/11
f 40/45/13 41/46/14 42/47/14 15/21/13
f 44/48/15 45/49/15 46/50/15 47/51/15
f 18/24/16 48/52/17 49/53/17 50/54/16
f 37/44/18 52/55/19 53/56/19 40/45/18
f 54/57/20 55/58/20 56/59/20 57/60/20
f 50/54/21 58/61/22 59/62/22 60/63/21
f 61/64/7 62/65/7 63/66/7 64/67/7
f 65/68/7 66/69/7 67/70/7 68/71/7
f 22/26/7 65/68/7 68/71/7 23/27/7
f 69/72/7 21/25/7 24/28/7 70/73/7
f 62/65/7 71/74/7 72/75/7 63/66/7
f 66/69/7 61/64/7 64/67/7 67/70/7
f 71/74/7 69/72/7 70/73/7 72/75/7
f 30/36/23 73/76/24 74/77/24 75/78/25
f 76/79/26 77/80/26 78/81/26 28/82/26
f 79/83/27 80/84/27 77/85/27 76/86/27
f 81/87/28 82/88/28 80/89/28 79/90/28
f 83/91/29 64/92/29 63/93/29 84/94/29
f 85/95/30 86/96/30 87/97/30 88/98/30
f 29/99/31 89/100/31 86/101/31 85/102/31
f 28/34/32 78/103/32 89/104/32 29/35/32
f 90/105/33 72/106/33 70/107/33 91/108/33
f 92/109/34 23/110/34 68/111/34 93/112/34
f 94/113/35 76/114/35 95/115/35 96/116/35
f 93/117/36 68/118/36 67/119/36 97/120/36
f 73/76/37 85/95/37 88/98/37 74/77/37
f 97/121/38 67/122/38 64/123/38 83/124/38
f 74/125/39 88/126/39 98/127/39 99/128/39
f 84/129/40 63/130/40 72/131/40 90/132/40
f 75/78/41 100/133/41 81/134/41 101/135/41
f 88/136/42 87/137/42 102/138/42 100/139/42
f 81/140/43 79/141/43 103/142/43 104/143/43
f 91/144/44 70/145/44 24/146/44 105/147/44
f 106/148/45 79/83/45 76/86/45 94/149/45
f 105/150/46 24/151/46 23/152/46 92/153/46
f 29/154/47 85/155/47 107/156/47 108/157/47
f 109/158/48 108/157/48 107/156/48 110/159/48
f 99/128/49 98/127/49 111/160/49 112/161/49
f 113/162/50 104/143/50 103/142/50 114/163/50
f 96/116/51 95/115/51 115/164/51 116/165/51
f 75/166/52 74/167/52 99/128/52 112/161/52
f 27/168/53 94/169/53 96/116/53 116/165/53
f 100/170/54 75/171/54 112/161/54 111/160/54
f 28/172/55 27/173/55 116/165/55 115/164/55
f 88/174/56 100/175/56 111/160/56 98/127/56
f 30/176/57 29/177/57 108/157/57 109/158/57
f 76/178/58 28/179/58 115/164/58 95/115/58
f 101/180/59 81/181/59 104/143/59 113/162/59
f 73/182/60 30/183/60 109/158/60 110/159/60
f 106/184/61 101/185/61 113/162/61 114/163/61
f 85/186/62 73/187/62 110/159/62 107/156/62
f 79/188/63 106/189/63 114/163/63 103/142/63
f 117/190/64 118/191/65 119/192/65 34/41/64
f 120/193/3 59/62/3 58/61/3 121/194/3
f 122/195/4 49/53/4 48/52/4 123/196/4
f 124/197/66 17/23/66 16/22/66 125/198/66
f 126/199/67 42/47/67 41/46/67 127/200/67
f 128/201/68 53/56/68 52/55/68 129/202/68
f 130/203/8 36/43/8 35/42/8 131/204/8
f 45/49/2 119/192/2 118/191/2 46/50/2
f 47/51/69 1/1/69 4/4/69 132/205/69
f 133/206/70 130/203/70 131/204/70 44/48/70
f 134/207/71 128/201/71 129/202/71 133/206/71
f 135/208/72 126/199/72 127/200/72 134/207/72
f 136/209/73 124/197/73 125/198/73 135/208/73
f 137/210/74 122/195/74 123/196/74 136/209/74
f 132/205/75 120/193/75 121/194/75 137/210/75
f 25/211/68 138/212/68 139/213/68 26/214/68
f 92/109/76 93/112/76 89/104/76 78/103/76
f 93/117/77 97/120/77 86/101/77 89/100/77
f 97/121/78 83/124/78 87/97/78 86/96/78
f 83/91/79 84/94/79 102/138/79 87/137/79
f 84/129/80 90/132/80 82/215/80 102/216/80
f 90/105/81 91/108/81 80/89/81 82/88/81
f 91/144/82 105/147/82 77/85/82 80/84/82
f 105/150/83 92/153/83 78/81/83 77/80/83
f 100/133/84 102/216/84 82/215/84 81/134/84
f 32/217/85 140/218/85 141/219/85 142/220/85
f 12/16/86 10/15/86 143/221/86 140/222/86
f 8/8/87 7/7/87 144/223/87 145/224/87
f 26/214/88 139/213/88 146/225/88 147/226/88
f 14/20/89 12/19/89 140/218/89 32/217/89
f 10/12/90 8/11/90 145/227/90 143/228/90
f 7/32/91 26/31/91 147/229/91 144/230/91
f 139/231/92 31/232/92 33/233/92 146/234/92
f 51/235/20 54/57/20 57/60/20 148/236/20
f 19/237/20 51/235/20 148/236/20 149/238/20
f 43/239/20 20/240/20 150/241/20 151/242/20
f 39/243/20 38/244/20 152/245/20 153/246/20
f 154/247/66 13/248/66 14/38/66 31/37/66
f 20/240/20 19/237/20 149/238/20 150/241/20
f 38/244/20 43/239/20 151/242/20 152/245/20
f 55/58/20 39/243/20 153/246/20 56/59/20
f 155/249/20 142/220/20 141/219/20 156/250/20
f 143/228/93 145/227/93 155/249/93 156/250/93
f 144/230/94 147/229/94 157/251/94 158/252/94
f 146/234/95 33/233/95 159/253/95 160/254/95
f 33/40/96 32/39/96 142/220/96 159/253/96
f 140/222/97 143/221/97 156/250/97 141/219/97
f 145/224/98 144/223/98 158/252/98 155/249/98
f 147/226/99 146/225/99 160/254/99 157/251/99
f 57/60/13 56/59/13 154/255/13 138/256/13
f 148/236/18 57/60/18 138/256/18 25/257/18
f 149/238/11 148/236/11 25/257/11 6/258/11
f 150/241/64 149/238/64 6/258/64 5/259/64
f 151/242/100 150/241/100 5/259/100 9/260/100
f 152/245/21 151/242/21 9/260/21 11/261/21
f 153/246/16 152/245/16 11/261/16 13/262/16
f 56/59/5 153/246/5 13/262/5 154/255/5
f 138/263/67 154/264/67 31/232/67 139/231/67
f 2/2/101 118/191/101 117/190/101
f 59/62/102 3/3/102 60/63/102
f 49/53/103 58/61/103 50/54/103
f 17/23/104 48/52/104 18/24/104
f 42/47/105 16/22/105 15/21/105
f 53/56/106 41/46/106 40/45/106
f 36/43/107 52/55/107 37/44/107
f 119/192/108 35/42/108 34/41/108
f 46/50/109 1/1/109 47/51/109
f 4/4/110 120/193/110 132/205/110
f 121/194/111 122/195/111 137/210/111
f 123/196/112 124/197/112 136/209/112
f 125/198/113 126/199/113 135/208/113
f 127/200/114 128/201/114 134/207/114
f 129/202/115 130/203/115 133/206/115
f 131/204/116 45/49/116 44/48/116
f 46/50/117 118/191/117 2/2/117 1/1/117
f 59/62/118 120/193/118 4/4/118 3/3/118
f 131/204/119 35/42/119 119/192/119 45/49/119
f 49/53/120 122/195/120 121/194/120 58/61/120
f 17/23/121 124/197/121 123/196/121 48/52/121
f 42/47/122 126/199/122 125/198/122 16/22/122
f 53/56/123 128/201/123 127/200/123 41/46/123
f 36/43/124 130/203/124 129/202/124 52/55/124
f 60/63/100 3/3/125 2/2/125 117/190/100
f 159/253/20 142/220/20 155/249/20 158/252/20
f 160/254/20 159/253/20 158/252/20 157/251/20
f 27/33/126 30/36/23 75/78/25 101/135/126
f 94/149/127 27/33/126 101/135/126 106/148/127
f 43/239/13 40/45/13 15/21/13 20/240/13
f 20/240/5 15/21/5 18/24/5 19/237/5
f 19/237/16 18/24/16 50/54/16 51/235/16
f 51/235/21 50/54/21 60/63/21 54/57/21
f 54/57/100 60/63/100 117/190/100 55/58/100
f 55/58/64 117/190/64 34/41/64 39/243/64
f 39/243/11 34/41/11 37/44/11 38/244/11
f 38/244/18 37/44/18 40/45/18 43/239/18
f 71/74/71 134/207/71 133/206/71 69/72/71
f 62/65/72 135/208/72 134/207/72 71/74/72
f 61/64/73 136/209/73 135/208/73 62/65/73
f 66/69/74 137/210/74 136/209/74 61/64/74
f 65/68/75 132/205/75 137/210/75 66/69/75
f 22/26/69 47/51/69 132/205/69 65/68/69
f 21/25/15 44/48/15 47/51/15 22/26/15
f 69/72/70 133/206/70 44/48/70 21/25/70
